<svg width="900" height="900" viewBox="0 0 900 900" fill="none" xmlns="http://www.w3.org/2000/svg">
<path d="M351.747 320H300.356L282.8 429.133C282.436 429.193 282.071 429.193 281.646 429.254C242.83 434.396 212.639 466.942 213.003 503.36C213.125 518.605 218.349 530.462 227.704 540.202C235.904 548.852 247.325 553.752 259.292 553.813C263.908 553.813 268.464 553.087 272.777 551.575C293.735 544.376 300.66 526.893 303.94 510.862V510.922C304.851 493.076 295.314 475.412 277.029 464.946L271.259 501.303C269.376 511.648 267.006 517.819 261.782 519.573C258.684 520.662 254.857 519.512 252.306 516.851C248.965 513.402 247.021 509.531 246.96 502.997C246.778 484.788 261.175 470.511 277.029 464.946C282.132 463.131 287.539 462.224 292.945 462.284C298.959 462.345 304.973 463.373 310.622 465.309C332.065 470.33 345.004 492.955 348.224 517.456L350.107 531.188H385.765L351.747 320ZM315.178 431.492L325.444 353.393H326.659L338.079 440.566C330.85 436.634 323.136 433.549 315.178 431.492ZM657.117 378.922V531.248H621.58V378.922H657.117ZM553.302 584C600.016 584 603.66 557.503 603.66 520.057L603.964 378.922H585.497C578.876 378.922 570.736 383.883 570.189 390.235L569.764 395.135L568.063 390.477C564.601 381.281 555.975 376.381 543.097 376.381C530.219 376.381 520.56 381.342 514.607 391.142C508.836 400.64 507.621 412.92 507.621 421.571V480.796C507.621 495.496 509.747 506.324 514.182 513.886C519.588 523.082 528.275 527.558 540.849 527.558C552.755 527.558 561.746 522.537 566.18 513.402L568.306 509.047V530.825C568.306 545.767 567.395 556.293 555.428 556.293C552.695 556.293 543.765 555.386 543.765 543.468V543.045H507.864V543.771C507.864 555.325 511.023 564.642 517.219 571.478C524.934 579.765 537.022 584 553.302 584ZM567.76 474.686C567.76 489.204 565.694 497.069 554.881 497.069C544.615 497.069 543.218 487.329 543.218 477.771V424.717C543.218 412.739 547.531 406.931 556.4 406.931C566.362 406.931 567.76 416.671 567.76 426.229V474.686ZM659 345.408C659 356.236 650.374 364.645 639.379 364.645C628.809 364.766 620.183 356.297 620.062 345.771C620.062 345.65 620.062 345.529 620.062 345.347C620.062 334.398 628.566 325.808 639.379 325.808C650.192 325.868 659 334.64 659 345.408ZM432.721 428.104V531.248H396.82L396.517 378.922H416.441C423.306 378.922 431.203 383.762 432.053 390.9L432.418 394.167L434.119 391.324C439.889 381.463 449.305 376.442 462.001 376.442C482.412 376.442 492.799 389.569 492.799 415.461V531.248H457.263V423.446C457.263 412.497 453.436 406.931 445.903 406.931C436.184 406.931 432.721 412.497 432.721 428.104Z" fill="#264653"/>
</svg>
