<svg width="900" height="900" viewBox="0 0 900 900" fill="none" xmlns="http://www.w3.org/2000/svg">
<path d="M723.553 371.397C697.645 244.884 452.007 236.865 293.684 333.25V343.905C451.839 262.577 676.181 263.103 696.607 379.613C703.456 418.167 681.74 458.333 642.94 481.465V511.699C689.598 494.588 737.46 439.217 723.553 371.397ZM435.758 592.837C326.546 602.91 212.685 587.033 196.724 501.682C188.915 459.595 208.115 414.963 233.547 387.226V372.407C187.738 412.573 162.902 463.429 177.223 523.475C195.49 600.527 293.186 644.149 442.334 629.667C501.37 623.94 578.59 604.936 632.313 575.446V533.555C583.546 562.604 502.926 586.619 435.758 592.837Z" fill="#264653"/>
<path d="M623.467 352.997H594.832V480.54C594.832 495.492 602.052 508.495 623.467 510.577V352.997ZM282.426 399.57H253.728L253.7 482.895C253.7 497.896 260.962 510.878 282.426 512.932V399.57ZM253.728 384.022H282.342V356.859H253.728V384.022ZM453.949 511.621C430.781 511.621 420.982 495.492 420.982 479.608V368.958H449.35V399.542H470.73V422.492H449.35V477.855C449.35 484.346 452.414 487.935 459.178 487.935H470.73V511.621H453.949ZM529.269 421.146C519.553 421.146 512.109 426.158 508.934 432.894C507.097 436.946 506.41 440.121 506.221 445.105H549.948C549.401 432.894 543.87 421.146 529.269 421.146ZM506.221 464.466C506.221 478.977 515.284 489.688 531.358 489.688C543.955 489.688 550.165 486.183 557.448 478.977L575.001 495.709C563.75 506.827 551.946 513.563 531.162 513.563C503.978 513.563 477.957 498.751 477.957 455.515C477.957 418.545 500.718 397.656 530.531 397.656C560.848 397.656 578.268 422.106 578.268 454.225V464.466H506.221ZM359.534 422.492C367.861 422.492 371.338 426.6 371.338 433.28V511.79H399.728V433.105C399.728 417.171 391.246 399.598 366.291 399.598L307.647 399.563V511.776H336.037V422.492H359.534Z" fill="#264653"/>
</svg>
