<svg width="900" height="900" viewBox="0 0 900 900" fill="none" xmlns="http://www.w3.org/2000/svg">
<path fill-rule="evenodd" clip-rule="evenodd" d="M718.203 326.64C718.199 324.683 718.582 322.745 719.329 320.936C720.075 319.127 721.172 317.483 722.555 316.098C723.938 314.714 725.581 313.616 727.389 312.867C729.198 312.119 731.136 311.735 733.093 311.736C735.051 311.733 736.991 312.116 738.802 312.863C740.612 313.611 742.257 314.708 743.642 316.093C745.027 317.478 746.126 319.122 746.874 320.932C747.622 322.742 748.006 324.682 748.004 326.64C748.007 328.599 747.624 330.539 746.876 332.349C746.128 334.159 745.029 335.804 743.644 337.188C742.258 338.573 740.613 339.67 738.802 340.417C736.992 341.164 735.051 341.546 733.093 341.541C731.136 341.544 729.197 341.16 727.389 340.413C725.58 339.665 723.937 338.567 722.553 337.183C721.17 335.798 720.073 334.154 719.327 332.345C718.58 330.536 718.198 328.597 718.203 326.64ZM733.1 314.694C739.727 314.698 745.115 320.033 745.097 326.661C745.115 333.289 739.707 338.641 733.1 338.641C731.529 338.639 729.975 338.327 728.525 337.724C727.075 337.12 725.759 336.237 724.65 335.124C723.542 334.012 722.664 332.691 722.067 331.239C721.469 329.787 721.164 328.231 721.168 326.661C721.161 325.09 721.465 323.534 722.061 322.081C722.658 320.629 723.536 319.308 724.645 318.196C725.754 317.084 727.072 316.202 728.523 315.601C729.974 315 731.529 314.692 733.1 314.694ZM738.902 331.316L740.681 334.426L736.821 334.45L735.588 331.927C735.038 330.823 734.329 329.805 733.483 328.907C732.875 328.275 732.319 328.116 730.947 328.116L730.38 328.119L730.373 334.443H727.191V319.007H734.879C738.193 319.007 739.748 320.856 739.748 323.302C739.755 325.635 738.179 327.311 735.574 327.622L735.581 327.708C736.904 328.168 737.343 328.599 738.902 331.316ZM730.37 321.405V325.645H733.594C735.75 325.645 736.462 324.594 736.431 323.503C736.431 322.141 735.349 321.395 733.248 321.395L730.37 321.405ZM582.576 358.255C597.6 340.459 619.834 327.711 651.984 327.711C707.636 327.711 722.194 364.098 720.369 398.481C719.288 419.145 712.657 443.763 707.701 458.487C685.69 523.904 659.255 565.27 599.093 565.264C571.639 565.27 546.514 554.558 536.613 527.57C518.53 550.453 490.893 565.388 459.382 565.543C435.296 565.661 416.567 557.15 404.663 542.529C390.53 558.128 366.614 565.27 342.843 565.277C321.488 565.264 303.657 557.824 291.953 545.114C278.912 558.266 258.42 565.246 232.321 564.635C198.888 563.833 180.211 543.773 179.596 515.929C178.677 472.824 219.729 383.837 236.65 356.818C248.33 337.65 264.554 328.24 286.099 328.23C297.928 328.24 310.074 330.296 317.583 338.251C323.758 344.782 324.75 350.587 325.206 361.576C344.142 331.063 376.058 326.917 405.34 326.924C427.746 326.924 446.344 335.31 454.147 347.989C469.164 335.224 490.793 327.124 516.737 327.124C543.293 327.127 563.076 333.607 575.392 347.539C578.108 350.598 580.039 352.933 582.576 358.255ZM289.628 508.451C290.616 498.029 282.81 486.774 251.665 492.179C254.758 485.25 259.357 475.754 264.578 464.973C281.31 430.424 304.431 382.682 304.867 364.005C305.102 354.796 301.39 347.118 286.455 347.125C270.677 347.118 260.781 353.718 252.674 367.036C235.092 395.112 197.755 479.808 198.539 516.416C198.981 537.343 215.205 545.601 233.233 546.023C258.078 546.6 286.697 539.623 289.631 508.447L289.628 508.451ZM353.037 463.425C350.964 469.002 347.066 480.682 343.918 493.042C354.139 490.492 361.793 488.726 374.914 489.031C389.873 489.397 399.445 495.589 399.438 507.967C399.438 537.94 366.289 546.745 343.32 546.752C318.074 546.752 295.896 532.394 295.896 504.788C295.896 472.423 313.436 423.347 329.899 390.675C350.107 350.535 370.767 345.203 406.335 345.203C421.975 345.203 439.979 351.88 439.979 366.642C439.979 387.105 422.673 394.908 405.482 395.896C398.132 396.318 386.843 396.722 380.091 396.239C380.091 396.239 374.351 404.964 368.286 420.479C400.105 416.001 413.609 423.226 408.24 441.627C400.969 466.504 379.413 468.145 353.034 463.421L353.037 463.425ZM491.135 397.375C495.333 391.491 500.949 386.041 509.563 386.041C520.12 386.041 519.097 391.625 516.592 398.761C509.477 419.08 530.964 419.615 536.209 419.201C554.966 417.739 565.301 405.62 567.845 384.977C571.328 356.869 547.647 346.078 517.629 346.078C467.592 346.078 447.951 376.68 429.215 420.427C420.413 440.978 409.328 476.096 409.331 498.461C409.328 529.872 428.441 546.904 459.244 546.904C504.224 546.904 536.009 511.036 545.09 466.345C547.885 452.592 551.331 426.782 516.395 428.22C498.661 428.952 487.963 432.864 482.323 450.985C476.518 469.652 497.573 470.16 497.573 470.16C493.336 489.459 480.934 501.16 469.883 501.17C462.986 501.17 456.711 498.177 458.812 483.581C461.932 462.24 481.919 410.33 491.135 397.375ZM698.527 422.971C693.219 449.302 681.332 480.471 668.415 503.696C647.336 541.583 621.769 546.89 599.415 546.607C577.074 546.341 551.887 538.103 551.697 503.623C551.562 478.882 562.229 443.939 571.293 421.06C587.103 379.559 603.226 345.711 654.261 346.316C713.759 347.011 703.147 399.933 698.527 422.971ZM623.894 490.482C632.166 476.47 655.453 412.912 656.089 397.019C656.276 392.389 655.512 386.998 648.048 386.912C642.93 386.839 638.48 387.831 634.478 394.013C625.487 405.7 599.166 477.586 599.612 491.926C599.774 497.082 602.653 501.585 608.983 501.585C616.274 501.592 620.314 496.574 623.894 490.482Z" fill="#264653"/>
</svg>
