<svg width="900" height="900" viewBox="0 0 900 900" fill="none" xmlns="http://www.w3.org/2000/svg">
<g clip-path="url(#clip0_2201_40)">
<path d="M405.504 160.274C398.751 160.274 393.267 165.756 393.267 172.51C393.267 179.263 398.751 184.747 405.504 184.747C412.257 184.747 417.74 179.263 417.74 172.51C417.74 165.756 412.257 160.274 405.504 160.274ZM450.029 160.274C443.275 160.274 437.792 165.756 437.792 172.51C437.792 179.263 443.275 184.747 450.029 184.747C456.782 184.747 462.266 179.263 462.266 172.51C462.266 165.756 456.782 160.274 450.029 160.274ZM494.554 160.274C487.801 160.274 482.318 165.756 482.318 172.51C482.318 179.263 487.801 184.747 494.554 184.747C501.307 184.747 506.79 179.263 506.79 172.51C506.79 165.756 501.307 160.274 494.554 160.274ZM316.453 204.781C309.69 204.781 304.198 210.272 304.198 217.035C304.198 223.799 309.69 229.291 316.453 229.291C323.216 229.291 328.707 223.799 328.707 217.035C328.707 210.272 323.216 204.781 316.453 204.781ZM583.605 204.781C576.842 204.781 571.351 210.272 571.351 217.035C571.351 223.799 576.842 229.291 583.605 229.291C590.369 229.291 595.861 223.799 595.861 217.035C595.861 210.272 590.369 204.781 583.605 204.781ZM360.977 204.798C354.224 204.798 348.74 210.281 348.74 217.035C348.74 223.789 354.224 229.273 360.977 229.273C367.731 229.273 373.216 223.789 373.216 217.035C373.216 210.281 367.731 204.798 360.977 204.798ZM539.08 204.798C532.326 204.798 526.842 210.281 526.842 217.035C526.842 223.789 532.326 229.273 539.08 229.273C545.834 229.273 551.318 223.789 551.318 217.035C551.318 210.281 545.834 204.798 539.08 204.798ZM405.504 204.799C398.751 204.799 393.267 210.282 393.267 217.035C393.267 223.789 398.751 229.271 405.504 229.271C412.257 229.271 417.74 223.789 417.74 217.035C417.74 210.282 412.257 204.799 405.504 204.799ZM450.029 204.799C443.275 204.799 437.792 210.282 437.792 217.035C437.792 223.789 443.275 229.271 450.029 229.271C456.782 229.271 462.266 223.789 462.266 217.035C462.266 210.282 456.782 204.799 450.029 204.799ZM494.554 204.799C487.801 204.799 482.318 210.282 482.318 217.035C482.318 223.789 487.801 229.271 494.554 229.271C501.307 229.271 506.79 223.789 506.79 217.035C506.79 210.282 501.307 204.799 494.554 204.799ZM271.927 249.306C265.164 249.306 259.672 254.797 259.672 261.561C259.672 268.324 265.164 273.816 271.927 273.816C278.691 273.816 284.182 268.324 284.182 261.561C284.182 254.797 278.691 249.306 271.927 249.306ZM628.131 249.306C621.367 249.306 615.876 254.797 615.876 261.561C615.876 268.324 621.367 273.816 628.131 273.816C634.894 273.816 640.386 268.324 640.386 261.561C640.386 254.797 634.894 249.306 628.131 249.306ZM316.453 249.323C309.699 249.323 304.214 254.806 304.214 261.561C304.214 268.315 309.699 273.8 316.453 273.8C323.207 273.8 328.691 268.315 328.691 261.561C328.691 254.806 323.207 249.323 316.453 249.323ZM583.605 249.323C576.851 249.323 571.367 254.806 571.367 261.561C571.367 268.315 576.851 273.8 583.605 273.8C590.359 273.8 595.843 268.315 595.843 261.561C595.843 254.806 590.359 249.323 583.605 249.323ZM360.977 249.325C354.224 249.325 348.741 254.809 348.741 261.562C348.741 268.315 354.224 273.798 360.977 273.798C367.731 273.798 373.215 268.315 373.215 261.562C373.215 254.809 367.731 249.325 360.977 249.325ZM405.504 249.325C398.751 249.325 393.267 254.809 393.267 261.562C393.267 268.315 398.751 273.798 405.504 273.798C412.257 273.798 417.74 268.315 417.74 261.562C417.74 254.809 412.257 249.325 405.504 249.325ZM450.029 249.325C443.275 249.325 437.792 254.809 437.792 261.562C437.792 268.315 443.275 273.798 450.029 273.798C456.782 273.798 462.266 268.315 462.266 261.562C462.266 254.809 456.782 249.325 450.029 249.325ZM494.554 249.325C487.801 249.325 482.318 254.809 482.318 261.562C482.318 268.315 487.801 273.798 494.554 273.798C501.307 273.798 506.79 268.315 506.79 261.562C506.79 254.809 501.307 249.325 494.554 249.325ZM539.08 249.325C532.326 249.325 526.843 254.809 526.843 261.562C526.843 268.315 532.326 273.798 539.08 273.798C545.833 273.798 551.317 268.315 551.317 261.562C551.317 254.809 545.833 249.325 539.08 249.325ZM271.927 293.849C265.173 293.849 259.689 299.333 259.689 306.087C259.689 312.841 265.173 318.325 271.927 318.325C278.681 318.325 284.165 312.841 284.165 306.087C284.165 299.333 278.681 293.849 271.927 293.849ZM628.131 293.849C621.377 293.849 615.893 299.333 615.893 306.087C615.893 312.841 621.377 318.325 628.131 318.325C634.885 318.325 640.369 312.841 640.369 306.087C640.369 299.333 634.885 293.849 628.131 293.849ZM316.453 293.85C309.7 293.85 304.216 299.333 304.216 306.086C304.216 312.84 309.7 318.322 316.453 318.322C323.206 318.322 328.689 312.84 328.689 306.086C328.689 299.333 323.206 293.85 316.453 293.85ZM360.977 293.85C354.224 293.85 348.741 299.333 348.741 306.086C348.741 312.84 354.224 318.322 360.977 318.322C367.731 318.322 373.215 312.84 373.215 306.086C373.215 299.333 367.731 293.85 360.977 293.85ZM405.504 293.85C398.751 293.85 393.267 299.333 393.267 306.086C393.267 312.84 398.751 318.322 405.504 318.322C412.257 318.322 417.74 312.84 417.74 306.086C417.74 299.333 412.257 293.85 405.504 293.85ZM450.029 293.85C443.275 293.85 437.792 299.333 437.792 306.086C437.792 312.84 443.275 318.322 450.029 318.322C456.782 318.322 462.266 312.84 462.266 306.086C462.266 299.333 456.782 293.85 450.029 293.85ZM494.554 293.85C487.801 293.85 482.318 299.333 482.318 306.086C482.318 312.84 487.801 318.322 494.554 318.322C501.307 318.322 506.79 312.84 506.79 306.086C506.79 299.333 501.307 293.85 494.554 293.85ZM539.08 293.85C532.326 293.85 526.843 299.333 526.843 306.086C526.843 312.84 532.326 318.322 539.08 318.322C545.833 318.322 551.317 312.84 551.317 306.086C551.317 299.333 545.833 293.85 539.08 293.85ZM583.605 293.85C576.852 293.85 571.369 299.333 571.369 306.086C571.369 312.84 576.852 318.322 583.605 318.322C590.358 318.322 595.842 312.84 595.842 306.086C595.842 299.333 590.358 293.85 583.605 293.85ZM227.402 338.376C220.649 338.376 215.165 343.858 215.165 350.612C215.165 357.365 220.649 362.848 227.402 362.848C234.155 362.848 239.638 357.365 239.638 350.612C239.638 343.858 234.155 338.376 227.402 338.376ZM271.927 338.376C265.174 338.376 259.69 343.858 259.69 350.612C259.69 357.365 265.174 362.848 271.927 362.848C278.681 362.848 284.164 357.365 284.164 350.612C284.164 343.858 278.681 338.376 271.927 338.376ZM316.453 338.376C309.7 338.376 304.216 343.858 304.216 350.612C304.216 357.365 309.7 362.848 316.453 362.848C323.206 362.848 328.689 357.365 328.689 350.612C328.689 343.858 323.206 338.376 316.453 338.376ZM360.977 338.376C354.224 338.376 348.741 343.858 348.741 350.612C348.741 357.365 354.224 362.848 360.977 362.848C367.731 362.848 373.215 357.365 373.215 350.612C373.215 343.858 367.731 338.376 360.977 338.376ZM405.504 338.376C398.751 338.376 393.267 343.858 393.267 350.612C393.267 357.365 398.751 362.848 405.504 362.848C412.257 362.848 417.74 357.365 417.74 350.612C417.74 343.858 412.257 338.376 405.504 338.376ZM450.029 338.376C443.275 338.376 437.792 343.858 437.792 350.612C437.792 357.365 443.275 362.848 450.029 362.848C456.782 362.848 462.266 357.365 462.266 350.612C462.266 343.858 456.782 338.376 450.029 338.376ZM494.554 338.376C487.801 338.376 482.318 343.858 482.318 350.612C482.318 357.365 487.801 362.848 494.554 362.848C501.307 362.848 506.79 357.365 506.79 350.612C506.79 343.858 501.307 338.376 494.554 338.376ZM539.08 338.376C532.326 338.376 526.843 343.858 526.843 350.612C526.843 357.365 532.326 362.848 539.08 362.848C545.833 362.848 551.317 357.365 551.317 350.612C551.317 343.858 545.833 338.376 539.08 338.376ZM583.605 338.376C576.852 338.376 571.369 343.858 571.369 350.612C571.369 357.365 576.852 362.848 583.605 362.848C590.358 362.848 595.842 357.365 595.842 350.612C595.842 343.858 590.358 338.376 583.605 338.376ZM628.131 338.376C621.377 338.376 615.894 343.858 615.894 350.612C615.894 357.365 621.377 362.848 628.131 362.848C634.884 362.848 640.368 357.365 640.368 350.612C640.368 343.858 634.884 338.376 628.131 338.376ZM672.656 338.376C665.903 338.376 660.42 343.858 660.42 350.612C660.42 357.365 665.903 362.848 672.656 362.848C679.409 362.848 684.893 357.365 684.893 350.612C684.893 343.858 679.409 338.376 672.656 338.376ZM227.402 382.901C220.649 382.901 215.165 388.384 215.165 395.137C215.165 401.891 220.649 407.374 227.402 407.374C234.155 407.374 239.638 401.891 239.638 395.137C239.638 388.384 234.155 382.901 227.402 382.901ZM271.927 382.901C265.174 382.901 259.69 388.384 259.69 395.137C259.69 401.891 265.174 407.374 271.927 407.374C278.681 407.374 284.164 401.891 284.164 395.137C284.164 388.384 278.681 382.901 271.927 382.901ZM316.453 382.901C309.7 382.901 304.216 388.384 304.216 395.137C304.216 401.891 309.7 407.374 316.453 407.374C323.206 407.374 328.689 401.891 328.689 395.137C328.689 388.384 323.206 382.901 316.453 382.901ZM360.977 382.901C354.224 382.901 348.741 388.384 348.741 395.137C348.741 401.891 354.224 407.374 360.977 407.374C367.731 407.374 373.215 401.891 373.215 395.137C373.215 388.384 367.731 382.901 360.977 382.901ZM405.504 382.901C398.751 382.901 393.267 388.384 393.267 395.137C393.267 401.891 398.751 407.374 405.504 407.374C412.257 407.374 417.74 401.891 417.74 395.137C417.74 388.384 412.257 382.901 405.504 382.901ZM450.029 382.901C443.275 382.901 437.792 388.384 437.792 395.137C437.792 401.891 443.275 407.374 450.029 407.374C456.782 407.374 462.266 401.891 462.266 395.137C462.266 388.384 456.782 382.901 450.029 382.901ZM494.554 382.901C487.801 382.901 482.318 388.384 482.318 395.137C482.318 401.891 487.801 407.374 494.554 407.374C501.307 407.374 506.79 401.891 506.79 395.137C506.79 388.384 501.307 382.901 494.554 382.901ZM539.08 382.901C532.326 382.901 526.843 388.384 526.843 395.137C526.843 401.891 532.326 407.374 539.08 407.374C545.833 407.374 551.317 401.891 551.317 395.137C551.317 388.384 545.833 382.901 539.08 382.901ZM583.605 382.901C576.852 382.901 571.369 388.384 571.369 395.137C571.369 401.891 576.852 407.374 583.605 407.374C590.358 407.374 595.842 401.891 595.842 395.137C595.842 388.384 590.358 382.901 583.605 382.901ZM628.131 382.901C621.377 382.901 615.894 388.384 615.894 395.137C615.894 401.891 621.377 407.374 628.131 407.374C634.884 407.374 640.368 401.891 640.368 395.137C640.368 388.384 634.884 382.901 628.131 382.901ZM672.656 382.901C665.903 382.901 660.42 388.384 660.42 395.137C660.42 401.891 665.903 407.374 672.656 407.374C679.409 407.374 684.893 401.891 684.893 395.137C684.893 388.384 679.409 382.901 672.656 382.901ZM227.402 427.427C220.649 427.427 215.165 432.909 215.165 439.663C215.165 446.416 220.649 451.899 227.402 451.899C234.155 451.899 239.638 446.416 239.638 439.663C239.638 432.909 234.155 427.427 227.402 427.427ZM271.927 427.427C265.174 427.427 259.69 432.909 259.69 439.663C259.69 446.416 265.174 451.899 271.927 451.899C278.681 451.899 284.164 446.416 284.164 439.663C284.164 432.909 278.681 427.427 271.927 427.427ZM316.453 427.427C309.7 427.427 304.216 432.909 304.216 439.663C304.216 446.416 309.7 451.899 316.453 451.899C323.206 451.899 328.689 446.416 328.689 439.663C328.689 432.909 323.206 427.427 316.453 427.427ZM360.977 427.427C354.224 427.427 348.741 432.909 348.741 439.663C348.741 446.416 354.224 451.899 360.977 451.899C367.731 451.899 373.215 446.416 373.215 439.663C373.215 432.909 367.731 427.427 360.977 427.427ZM405.504 427.427C398.751 427.427 393.267 432.909 393.267 439.663C393.267 446.416 398.751 451.899 405.504 451.899C412.257 451.899 417.74 446.416 417.74 439.663C417.74 432.909 412.257 427.427 405.504 427.427ZM450.029 427.427C443.275 427.427 437.792 432.909 437.792 439.663C437.792 446.416 443.275 451.899 450.029 451.899C456.782 451.899 462.266 446.416 462.266 439.663C462.266 432.909 456.782 427.427 450.029 427.427ZM494.554 427.427C487.801 427.427 482.318 432.909 482.318 439.663C482.318 446.416 487.801 451.899 494.554 451.899C501.307 451.899 506.79 446.416 506.79 439.663C506.79 432.909 501.307 427.427 494.554 427.427ZM539.08 427.427C532.326 427.427 526.843 432.909 526.843 439.663C526.843 446.416 532.326 451.899 539.08 451.899C545.833 451.899 551.317 446.416 551.317 439.663C551.317 432.909 545.833 427.427 539.08 427.427ZM583.605 427.427C576.852 427.427 571.369 432.909 571.369 439.663C571.369 446.416 576.852 451.899 583.605 451.899C590.358 451.899 595.842 446.416 595.842 439.663C595.842 432.909 590.358 427.427 583.605 427.427ZM628.131 427.427C621.377 427.427 615.894 432.909 615.894 439.663C615.894 446.416 621.377 451.899 628.131 451.899C634.884 451.899 640.368 446.416 640.368 439.663C640.368 432.909 634.884 427.427 628.131 427.427ZM672.656 427.427C665.903 427.427 660.42 432.909 660.42 439.663C660.42 446.416 665.903 451.899 672.656 451.899C679.409 451.899 684.893 446.416 684.893 439.663C684.893 432.909 679.409 427.427 672.656 427.427ZM271.927 471.95C265.173 471.95 259.689 477.434 259.689 484.188C259.689 490.942 265.173 496.425 271.927 496.425C278.681 496.425 284.165 490.942 284.165 484.188C284.165 477.434 278.681 471.95 271.927 471.95ZM628.131 471.95C621.377 471.95 615.893 477.434 615.893 484.188C615.893 490.942 621.377 496.425 628.131 496.425C634.885 496.425 640.369 490.942 640.369 484.188C640.369 477.434 634.885 471.95 628.131 471.95ZM316.453 471.951C309.7 471.951 304.216 477.435 304.216 484.188C304.216 490.941 309.7 496.424 316.453 496.424C323.206 496.424 328.689 490.941 328.689 484.188C328.689 477.435 323.206 471.951 316.453 471.951ZM360.977 471.951C354.224 471.951 348.741 477.435 348.741 484.188C348.741 490.941 354.224 496.424 360.977 496.424C367.731 496.424 373.215 490.941 373.215 484.188C373.215 477.435 367.731 471.951 360.977 471.951ZM405.504 471.951C398.751 471.951 393.267 477.435 393.267 484.188C393.267 490.941 398.751 496.424 405.504 496.424C412.257 496.424 417.74 490.941 417.74 484.188C417.74 477.435 412.257 471.951 405.504 471.951ZM450.029 471.951C443.275 471.951 437.792 477.435 437.792 484.188C437.792 490.941 443.275 496.424 450.029 496.424C456.782 496.424 462.266 490.941 462.266 484.188C462.266 477.435 456.782 471.951 450.029 471.951ZM494.554 471.951C487.801 471.951 482.318 477.435 482.318 484.188C482.318 490.941 487.801 496.424 494.554 496.424C501.307 496.424 506.79 490.941 506.79 484.188C506.79 477.435 501.307 471.951 494.554 471.951ZM539.08 471.951C532.326 471.951 526.843 477.435 526.843 484.188C526.843 490.941 532.326 496.424 539.08 496.424C545.833 496.424 551.317 490.941 551.317 484.188C551.317 477.435 545.833 471.951 539.08 471.951ZM583.605 471.951C576.852 471.951 571.369 477.435 571.369 484.188C571.369 490.941 576.852 496.424 583.605 496.424C590.358 496.424 595.842 490.941 595.842 484.188C595.842 477.435 590.358 471.951 583.605 471.951ZM271.927 516.459C265.164 516.459 259.672 521.95 259.672 528.714C259.672 535.477 265.164 540.968 271.927 540.968C278.691 540.968 284.182 535.477 284.182 528.714C284.182 521.95 278.691 516.459 271.927 516.459ZM628.131 516.459C621.367 516.459 615.876 521.95 615.876 528.714C615.876 535.477 621.367 540.968 628.131 540.968C634.894 540.968 640.386 535.477 640.386 528.714C640.386 521.95 634.894 516.459 628.131 516.459ZM316.453 516.475C309.699 516.475 304.214 521.959 304.214 528.714C304.214 535.468 309.699 540.952 316.453 540.952C323.207 540.952 328.691 535.468 328.691 528.714C328.691 521.959 323.207 516.475 316.453 516.475ZM583.605 516.475C576.851 516.475 571.367 521.959 571.367 528.714C571.367 535.468 576.851 540.952 583.605 540.952C590.359 540.952 595.843 535.468 595.843 528.714C595.843 521.959 590.359 516.475 583.605 516.475ZM360.977 516.478C354.224 516.478 348.741 521.96 348.741 528.714C348.741 535.467 354.224 540.951 360.977 540.951C367.731 540.951 373.215 535.467 373.215 528.714C373.215 521.96 367.731 516.478 360.977 516.478ZM405.504 516.478C398.751 516.478 393.267 521.96 393.267 528.714C393.267 535.467 398.751 540.951 405.504 540.951C412.257 540.951 417.74 535.467 417.74 528.714C417.74 521.96 412.257 516.478 405.504 516.478ZM450.029 516.478C443.275 516.478 437.792 521.96 437.792 528.714C437.792 535.467 443.275 540.951 450.029 540.951C456.782 540.951 462.266 535.467 462.266 528.714C462.266 521.96 456.782 516.478 450.029 516.478ZM494.554 516.478C487.801 516.478 482.318 521.96 482.318 528.714C482.318 535.467 487.801 540.951 494.554 540.951C501.307 540.951 506.79 535.467 506.79 528.714C506.79 521.96 501.307 516.478 494.554 516.478ZM539.08 516.478C532.326 516.478 526.843 521.96 526.843 528.714C526.843 535.467 532.326 540.951 539.08 540.951C545.833 540.951 551.317 535.467 551.317 528.714C551.317 521.96 545.833 516.478 539.08 516.478ZM316.453 560.984C309.69 560.984 304.198 566.476 304.198 573.239C304.198 580.003 309.69 585.494 316.453 585.494C323.216 585.494 328.707 580.003 328.707 573.239C328.707 566.476 323.216 560.984 316.453 560.984ZM583.605 560.984C576.842 560.984 571.351 566.476 571.351 573.239C571.351 580.003 576.842 585.494 583.605 585.494C590.369 585.494 595.861 580.003 595.861 573.239C595.861 566.476 590.369 560.984 583.605 560.984ZM360.977 561.001C354.224 561.001 348.74 566.485 348.74 573.239C348.74 579.993 354.224 585.476 360.977 585.476C367.731 585.476 373.216 579.993 373.216 573.239C373.216 566.485 367.731 561.001 360.977 561.001ZM539.08 561.001C532.326 561.001 526.842 566.485 526.842 573.239C526.842 579.993 532.326 585.476 539.08 585.476C545.834 585.476 551.318 579.993 551.318 573.239C551.318 566.485 545.834 561.001 539.08 561.001ZM405.504 561.002C398.751 561.002 393.267 566.486 393.267 573.239C393.267 579.992 398.751 585.475 405.504 585.475C412.257 585.475 417.74 579.992 417.74 573.239C417.74 566.486 412.257 561.002 405.504 561.002ZM450.029 561.002C443.275 561.002 437.792 566.486 437.792 573.239C437.792 579.992 443.275 585.475 450.029 585.475C456.782 585.475 462.266 579.992 462.266 573.239C462.266 566.486 456.782 561.002 450.029 561.002ZM494.554 561.002C487.801 561.002 482.318 566.486 482.318 573.239C482.318 579.992 487.801 585.475 494.554 585.475C501.307 585.475 506.79 579.992 506.79 573.239C506.79 566.486 501.307 561.002 494.554 561.002ZM405.529 605.523C398.78 605.523 393.299 611.004 393.299 617.753C393.299 624.503 398.78 629.983 405.529 629.983C412.279 629.983 417.759 624.503 417.759 617.753C417.759 611.004 412.279 605.523 405.529 605.523ZM450.029 605.528C443.275 605.528 437.792 611.011 437.792 617.765C437.792 624.518 443.275 630.001 450.029 630.001C456.782 630.001 462.266 624.518 462.266 617.765C462.266 611.011 456.782 605.528 450.029 605.528ZM494.554 605.528C487.801 605.528 482.318 611.011 482.318 617.765C482.318 624.518 487.801 630.001 494.554 630.001C501.307 630.001 506.79 624.518 506.79 617.765C506.79 611.011 501.307 605.528 494.554 605.528Z" fill="#264653"/>
<path d="M734.847 692.418C734.498 692.418 734.141 692.425 733.784 692.432H733.709C724.765 692.679 715.459 695.831 710.086 700.696C708.806 701.855 707.707 703.171 706.795 704.563C704.533 708.016 703.348 711.998 703.348 716C703.348 716.405 703.363 716.809 703.383 717.213C703.671 722.47 705.891 727.528 710.086 731.325C715.135 735.895 722.305 738.645 730.2 739.419C737.751 740.16 745.505 738.953 750.809 735.951C756.051 732.985 759.684 727.994 760.931 722.511C760.956 722.402 760.973 722.279 761 722.169L754.859 722.17C753.879 725.425 750.582 729.154 747.457 730.648C744.556 732.035 740.809 733.506 734.833 733.423C734.73 733.422 733.874 733.396 733.538 733.376C732.523 733.314 731.529 733.191 730.549 732.978C727.082 732.227 723.902 730.668 721.53 728.318C718.368 725.182 716.699 720.731 716.699 716.002C716.699 711.26 718.364 706.819 721.53 703.652C724.734 700.448 729.474 698.8 734.436 698.711H734.683H735.347C740.837 698.794 744.03 699.519 748.136 701.596C750.726 702.906 754.366 706.681 755.133 710.526H760.815V695.008H754.914V696.673C754.914 696.961 754.763 697.283 754.475 697.447C754.201 697.598 753.803 697.619 753.282 697.352C750.73 696.041 743.983 692.432 734.847 692.418ZM163.56 692.486C158.363 692.459 152.443 693.501 147.459 695.722C142.821 697.788 139 701.129 139 706.687C139 711.663 142.18 714.589 142.081 714.493C143.45 715.733 145.621 717.871 151.299 719.098C153.826 719.644 159.239 720.483 164.662 721.093C170.005 721.694 175.303 722.189 177.459 722.716C179.181 723.138 182.014 723.759 182.014 726.96C182.014 730.188 179.002 731.147 178.468 731.359C177.93 731.573 174.325 733.224 167.792 733.224C162.977 733.224 157.208 731.784 155.092 731.064C152.663 730.238 150.141 729.016 147.758 726.103C147.17 725.385 146.256 723.409 146.256 721.456H140.316V737.966H146.878V735.732C146.878 735.512 147.221 734.444 148.293 734.958C149.651 735.608 153.675 737.164 157.903 738.048C161.334 738.765 163.56 739.275 167.829 739.275C174.827 739.275 178.58 738.144 181.161 737.404C183.648 736.691 186.666 735.423 189.085 733.484C190.408 732.424 193.315 729.721 193.315 724.8C193.315 720.064 190.805 717.124 189.892 716.247C188.647 715.053 187.21 714.088 185.658 713.362C184.297 712.726 182.177 711.964 180.443 711.553C177.036 710.745 169.413 709.675 165.784 709.312C161.955 708.929 155.299 708.346 152.667 707.53C151.854 707.278 150.197 706.488 150.197 704.596C150.197 703.253 150.976 702.088 152.443 701.142C154.756 699.651 159.57 698.777 164.496 698.777C170.373 698.777 175.323 700.065 178.468 701.478C179.563 701.97 180.796 702.664 181.802 703.48C182.935 704.399 184.494 706.303 185.072 708.955H190.379V694.583H184.474V696.249C184.474 696.804 183.918 697.483 182.847 696.928C180.19 695.551 172.738 692.533 163.56 692.486ZM234.539 692.486C225.272 692.486 215.393 695.687 209.796 700.765C205.341 704.807 203.053 710.443 203.053 716.07C203.053 721.758 205.278 727.303 209.796 731.394C215.806 736.837 224.836 739.72 234.539 739.72C244.295 739.72 253.505 736.842 259.345 731.394C263.683 727.346 265.99 721.531 265.99 716.07C265.99 710.415 263.824 704.864 259.345 700.793C253.071 695.09 244.861 692.486 234.539 692.486ZM624.253 692.486C619.065 692.459 613.144 693.501 608.162 695.722C603.522 697.79 599.696 701.129 599.696 706.687C599.696 711.662 602.878 714.479 602.782 714.376C604.145 715.63 606.318 717.618 612 718.838C614.526 719.38 619.997 720.14 625.418 720.744C630.759 721.338 636 722.025 638.159 722.546C639.882 722.961 642.709 723.759 642.709 726.96C642.709 730.188 639.701 731.14 639.173 731.359C638.63 731.585 635.026 733.224 628.495 733.224C623.677 733.224 617.907 731.784 615.79 731.058C613.364 730.225 610.833 729.016 608.455 726.103C607.864 725.379 606.955 723.402 606.955 721.456H601.02V737.966H607.578V735.732C607.578 735.512 607.921 734.444 608.983 734.958C610.35 735.619 614.37 737.164 618.606 738.048C622.039 738.765 624.253 739.268 628.53 739.268C635.527 739.268 639.276 738.137 641.859 737.404C644.355 736.695 647.363 735.423 649.789 733.484C651.109 732.428 654.01 729.721 654.01 724.8C654.01 720.064 651.502 717.317 650.59 716.439C649.351 715.246 647.911 714.356 646.355 713.629C644.991 712.992 643.011 712.382 641.284 711.978C637.869 711.178 630.105 710.078 626.48 709.715C622.652 709.332 616.015 708.586 613.383 707.77C612.565 707.516 610.902 706.488 610.902 704.596C610.902 703.253 611.677 702.088 613.143 701.142C615.46 699.65 620.271 698.777 625.192 698.777C631.072 698.777 636.013 700.065 639.173 701.478C640.242 702.006 641.497 702.664 642.504 703.48C643.633 704.394 645.19 706.303 645.766 708.955H651.071V694.584H645.177V696.249C645.177 696.804 644.621 697.483 643.538 696.928C640.884 695.567 633.43 692.534 624.253 692.486ZM665.34 695.146V700.396H670.917C673.302 700.396 673.166 702.248 673.166 702.248L673.098 730.007C673.098 730.007 673.229 731.859 670.838 731.859H665.265V737.102H694.522V731.859H688.677C686.286 731.859 686.416 729.995 686.416 729.995L686.348 702.248C686.348 702.248 686.212 700.396 688.597 700.396H694.453V695.146H665.34ZM342.967 695.158V700.373H348.115C350.355 700.373 351.795 701.797 352.647 702.71C353.326 703.436 368.039 720.15 368.4 720.611C368.76 721.071 368.76 721.146 368.76 721.351V729.899C368.76 731.995 366.553 731.858 366.553 731.858H360.931V737.101H389.687V731.844H383.696C383.696 731.844 381.58 731.991 381.58 729.995V721.529C381.58 721.529 381.558 720.828 381.785 720.565C382.183 720.105 397.086 703.132 397.744 702.376C399.18 700.724 399.961 700.374 401.883 700.374H407.17V695.16H383.478V700.374H387.027C388.083 700.374 388.371 701.437 387.915 702.006L377.883 713.737H377.562L367.762 702.005C367.046 701.128 367.626 700.373 368.4 700.373H371.882V695.158H342.967ZM465.575 695.159L438.512 695.159V700.388H443.095C446.406 700.388 446.64 702.231 446.64 703.835V728.377C446.64 729.864 446.736 731.859 444.611 731.859H438.929V737.101H461.73V731.859H457.255C454.904 731.859 454.774 730.803 454.733 728.48L454.747 701.765H454.952L470.901 737.116H479.885L495.696 701.765H495.908L496.1 728.48C496.052 730.803 495.929 731.859 493.585 731.859H489.103V737.101H516.735V731.859H511.055C508.937 731.859 509.026 729.864 509.026 728.377L508.889 703.835C508.889 702.231 509.115 700.388 512.432 700.388H517.017V695.159L490.447 695.159L477.994 722.586L465.575 695.159ZM272.456 695.159V700.388H277.043C280.35 700.388 280.588 702.231 280.588 703.835V728.377C280.588 729.864 280.683 731.859 278.558 731.859H272.874V737.101H297.098V731.859H291.192C288.845 731.859 288.719 730.803 288.678 728.48V707.468L321.896 737.101H330.34L329.891 703.63C329.953 701.204 330.089 700.374 332.594 700.374H337.896V695.159H313.245V700.374H318.672C321.132 700.374 321.57 701.361 321.591 703.63L321.896 721.147L293.074 695.159H272.456ZM525.064 695.159V700.374H530.169C532.636 700.374 533.074 701.361 533.095 703.63H533.102V723.888C533.102 737.348 547.062 739.726 559.042 739.726C571.262 739.726 583.085 737.225 583.085 724.307L582.996 702.424C583.126 700.923 583.598 700.374 585.634 700.374H590.939V695.159H566.526V700.374H571.379C573.744 700.374 574.237 701.292 574.292 703.376L574.271 724.491C574.271 729.365 572.495 734.69 559.042 734.69C546.453 734.69 546.987 726.006 546.987 724.539V703.349C547.056 701.142 547.283 700.374 549.688 700.374H554.849V695.159H525.064ZM234.539 698.634C239.631 698.634 244.538 700.491 247.824 703.719C251.034 706.873 252.687 711.278 252.687 716.069C252.687 721.024 251.148 725.06 247.824 728.377C244.502 731.692 239.734 733.483 234.539 733.483C229.442 733.483 224.554 731.667 221.24 728.377C218.076 725.237 216.403 720.791 216.403 716.069C216.403 711.326 218.075 706.878 221.24 703.719C224.527 700.436 229.442 698.634 234.539 698.634Z" fill="#264653"/>
</g>
<defs>
<clipPath id="clip0_2201_40">
<rect width="622" height="579.453" fill="white" transform="translate(139 160.274)"/>
</clipPath>
</defs>
</svg>
