<svg width="900" height="900" viewBox="0 0 900 900" fill="none" xmlns="http://www.w3.org/2000/svg">
<path d="M99.8562 365.029V398.916H154.61V537.263H219.794L230.332 501.977H195.893V398.916H249.343V365.029H99.8562Z" fill="#264653"/>
<path d="M257.601 537.368H300.079L349.075 365.026H306.597L257.601 537.368Z" fill="#264653"/>
<path d="M352.333 365.026L400.678 537.368H443.156L394.811 365.026H352.333Z" fill="#264653"/>
<path d="M680.098 365.026L669.56 400.312H704.107V503.373H650.765V537.261H800.144V503.373H745.39V365.026H680.098Z" fill="#264653"/>
<path d="M555.162 473.038H591.013V497.243C579.497 502.945 566.678 505.527 553.75 504.881C517.464 504.881 496.932 481.752 496.932 449.37C496.932 418.925 515.835 396.011 545.819 395.795C558.639 395.15 571.241 399.561 580.801 407.952L595.793 371.16C580.475 362.984 563.201 358.896 545.819 359.326C491.934 359.326 454.237 396.979 454.237 449.262C454.237 504.343 492.695 540.705 552.772 540.705C594.707 540.705 621.541 524.676 631.427 516.177V438.827H568.959L555.162 473.038Z" fill="#264653"/>
</svg>
