<svg width="900" height="900" viewBox="0 0 900 900" fill="none" xmlns="http://www.w3.org/2000/svg">
<path d="M244.32 445.42C243.578 461.625 232.266 483.812 210.384 511.972C187.759 541.388 168.617 556.098 152.96 556.098C143.264 556.098 135.051 547.143 128.348 529.224C123.871 512.802 119.393 496.379 114.918 479.958C109.937 462.05 104.599 453.085 98.887 453.085C97.6436 453.085 93.2859 455.707 85.829 460.926L77.9993 450.836C86.2103 443.619 94.3116 436.4 102.285 429.172C113.236 419.704 121.458 414.726 126.94 414.223C139.89 412.98 147.861 421.835 150.852 440.789C154.085 461.242 156.322 473.962 157.579 478.941C161.312 495.91 165.419 504.384 169.906 504.384C173.39 504.384 178.62 498.881 185.598 487.874C192.564 476.868 196.299 468.493 196.8 462.738C197.794 453.238 194.06 448.477 185.598 448.477C181.611 448.477 177.505 449.395 173.28 451.207C181.459 424.411 197.083 411.395 220.146 412.138C237.244 412.64 245.303 423.735 244.32 445.42Z" fill="#264653"/>
<path d="M314.519 365.033C314.27 371.235 311.157 377.185 305.173 382.886C298.446 389.327 290.475 392.549 281.26 392.549C267.065 392.549 260.207 386.358 260.71 373.964C260.949 367.523 264.75 361.32 272.099 355.369C279.448 349.429 287.604 346.448 296.58 346.448C301.81 346.448 306.166 348.501 309.66 352.586C313.144 356.678 314.76 360.829 314.519 365.033ZM347.026 497.907C340.05 511.098 330.462 523.045 318.254 533.746C301.559 548.18 284.876 555.399 268.19 555.399C260.458 555.399 254.542 552.909 250.436 547.929C246.329 542.95 244.397 536.487 244.649 528.514C244.888 520.305 247.444 507.604 252.301 490.428C257.162 473.252 259.596 464.037 259.596 462.792C259.596 456.327 257.347 453.085 252.87 453.085C251.375 453.085 247.137 455.707 240.161 460.926L231.567 450.836C239.539 443.619 247.508 436.4 255.48 429.172C266.191 419.704 274.163 414.726 279.404 414.223C287.615 413.481 293.653 415.895 297.518 421.486C301.373 427.075 302.804 434.326 301.821 443.258C298.578 458.403 295.084 477.632 291.349 500.954C291.099 511.633 294.964 516.961 302.936 516.961C306.418 516.961 312.641 513.283 321.617 505.902C329.087 499.765 335.189 493.988 339.928 488.573L347.026 497.907Z" fill="#264653"/>
<path d="M580.364 497.907C573.388 511.098 563.8 523.045 551.593 533.746C534.897 548.18 518.212 555.399 501.529 555.399C485.324 555.399 477.484 546.444 477.985 528.514C478.225 520.543 479.787 510.968 482.648 499.765C485.51 488.561 487.072 479.847 487.322 473.625C487.573 464.167 484.7 459.43 478.696 459.43C472.199 459.43 464.457 467.16 455.46 482.598C445.96 498.793 440.827 514.484 440.085 529.671C439.584 540.394 440.632 548.617 443.23 554.34C425.848 554.841 413.671 551.969 406.727 545.746C400.503 540.265 397.652 531.18 398.155 518.469C398.394 510.498 399.617 502.528 401.822 494.557C404.019 486.585 405.24 479.488 405.492 473.252C405.994 464.037 402.62 459.43 395.391 459.43C389.146 459.43 382.409 466.538 375.18 480.733C367.952 494.928 363.956 509.755 363.213 525.196C362.711 539.151 363.607 548.859 365.889 554.34C348.789 554.841 336.647 551.237 329.462 543.527C323.5 537.076 320.782 527.271 321.283 514.101C321.524 507.648 322.659 498.639 324.711 487.086C326.764 475.535 327.911 466.537 328.151 460.074C328.642 455.607 327.518 453.368 324.789 453.368C323.292 453.368 319.056 455.89 312.078 460.926L303.115 450.836C304.358 449.854 312.198 442.625 326.656 429.172C337.116 419.465 344.214 414.486 347.947 414.235C354.424 413.732 359.654 416.408 363.639 422.26C367.623 428.113 369.623 434.905 369.623 442.625C369.623 445.113 369.371 447.484 368.88 449.722C372.614 444 376.972 439.009 381.96 434.773C393.416 424.816 406.246 419.203 420.441 417.958C432.649 416.964 441.362 419.826 446.604 426.552C450.83 432.033 452.818 439.883 452.576 450.094C454.324 448.609 456.192 446.981 458.189 445.235C463.912 438.508 469.513 433.159 474.994 429.172C484.209 422.446 493.808 418.712 503.766 417.958C515.722 416.964 524.316 419.814 529.546 426.518C534.023 431.978 536.021 439.797 535.53 449.962C535.279 456.918 533.598 467.03 530.486 480.307C527.361 493.585 525.812 501.205 525.812 503.193C525.561 508.412 526.064 512.006 527.307 513.993C528.554 515.979 531.533 516.961 536.274 516.961C539.756 516.961 545.98 513.283 554.955 505.902C562.425 499.765 568.528 493.988 573.267 488.572L580.364 497.907Z" fill="#264653"/>
<path d="M635.659 458.512C635.899 451.83 633.169 448.478 627.448 448.478C619.98 448.478 612.401 453.62 604.691 463.906C596.983 474.192 592.998 484.041 592.757 493.453C592.615 493.453 592.615 495.07 592.757 498.29C604.943 493.835 615.512 487.022 624.467 477.85C631.675 469.924 635.406 463.469 635.659 458.512ZM720.479 497.526C713.25 509.472 699.057 521.407 677.884 533.341C651.481 548.518 624.697 556.098 597.552 556.098C577.373 556.098 562.916 549.37 554.202 535.929C547.977 526.714 544.986 515.76 545.237 503.051C545.478 482.884 554.454 463.71 572.141 445.518C591.568 425.602 614.487 415.632 640.889 415.632C665.305 415.632 678.255 425.579 679.751 445.453C680.743 458.118 673.767 471.167 658.83 484.588C642.877 499.252 622.819 508.566 598.665 512.539C603.141 518.753 609.867 521.855 618.843 521.855C636.773 521.855 656.33 517.3 677.511 508.171C692.7 501.764 704.658 495.102 713.382 488.2L720.479 497.526Z" fill="#264653"/>
<path d="M779.686 471.069C779.937 464.333 778.999 458.151 776.88 452.538C774.761 446.927 771.706 444.11 767.729 444.11C755.02 444.11 744.559 450.978 736.348 464.704C729.36 475.94 725.625 487.918 725.134 500.639C724.884 506.884 726.008 512.377 728.496 517.115C731.226 522.608 735.091 525.348 740.081 525.348C751.285 525.348 760.883 518.743 768.854 505.507C775.579 494.525 779.184 483.047 779.686 471.069ZM821.91 472.478C820.908 495.365 812.444 515.139 796.502 531.801C780.561 548.464 760.751 556.796 737.09 556.796C717.414 556.796 702.465 550.451 692.256 537.763C684.787 528.318 680.671 516.504 679.929 502.331C678.673 480.94 686.392 461.284 703.097 443.377C721.028 423.483 743.565 413.536 770.72 413.536C788.15 413.536 801.351 419.389 810.325 431.072C818.799 441.773 822.654 455.575 821.91 472.478Z" fill="#264653"/>
</svg>
