<svg width="900" height="900" viewBox="0 0 900 900" fill="none" xmlns="http://www.w3.org/2000/svg">
<path d="M638.062 583.168C638.062 562.975 629.415 545.134 600.17 545.134C585.167 545.134 573.248 549.408 566.786 553.15L571.522 569.351C577.472 565.619 586.965 562.547 595.925 562.547C610.731 562.526 613.156 570.898 613.156 576.28V577.576C580.838 577.524 560.408 588.687 560.408 611.42C560.408 625.31 570.78 638.334 588.91 638.334C599.972 638.334 609.319 633.871 614.902 626.826H615.446C615.446 626.826 619.127 642.222 639.484 636.337C638.449 629.888 638.062 623.095 638.062 614.838V583.168ZM613.951 604.49C613.951 606.121 613.816 607.814 613.334 609.267C611.473 615.486 605.054 620.691 597.065 620.691C590.322 620.691 585.031 616.876 585.031 608.88C585.031 596.651 598.539 593.286 613.951 593.369" fill="#264653"/>
<path d="M143.271 517.658C143.271 517.658 164.381 603.992 167.738 617.976C171.69 634.323 178.768 640.364 199.199 636.34L212.393 582.805C215.729 569.542 217.997 560.031 220.152 546.516H220.517C222.012 560.167 224.167 569.542 226.895 582.847C226.895 582.847 232.28 607.169 235.072 619.91C237.79 632.651 245.443 640.688 265.487 636.34L296.896 517.658H271.541L260.761 568.998C257.907 583.872 255.314 595.588 253.296 609.218H252.93C251.111 595.735 248.8 584.499 245.831 569.929L234.664 517.658H208.211L196.292 568.591C192.894 584.143 189.715 596.612 187.718 609.813H187.373C185.313 597.428 182.522 581.656 179.563 566.689C179.563 566.689 172.484 530.222 169.986 517.658" fill="#264653"/>
<path d="M367.555 583.168C367.555 562.975 358.887 545.134 329.643 545.134C314.681 545.134 302.741 549.408 296.28 553.15L301.016 569.351C306.944 565.619 316.428 562.547 325.419 562.547C340.224 562.526 342.65 570.898 342.65 576.28V577.576C310.332 577.524 289.881 588.687 289.881 611.42C289.881 625.31 300.295 638.334 318.341 638.334C329.507 638.334 338.771 633.871 344.355 626.826H344.919C344.919 626.826 348.62 642.222 368.956 636.337C367.911 629.888 367.555 623.095 367.555 614.838V583.168ZM343.424 604.49C343.424 606.121 343.288 607.814 342.828 609.267C340.945 615.486 334.526 620.691 326.517 620.691C319.815 620.691 314.504 616.876 314.504 608.88C314.504 596.651 328.012 593.286 343.424 593.369" fill="#264653"/>
<path d="M380.712 517.658V636.299H404.844V611.141V517.658H380.712Z" fill="#264653"/>
<path d="M712.125 517.658V605.194C712.125 617.276 714.393 625.7 719.276 630.864C723.563 635.389 730.578 638.337 738.933 638.337C746.105 638.337 753.121 636.957 756.435 635.755L756.142 616.91C753.664 617.485 750.831 617.976 746.941 617.976C738.703 617.976 735.984 612.761 735.984 601.912V568.403H757V545.732H735.984V517.658" fill="#264653"/>
<path d="M649.753 547.192V636.337H674.7V590.683C674.7 588.227 674.856 586.105 675.244 584.14C677.104 574.514 684.413 568.42 694.942 568.42C697.88 568.42 699.877 568.744 702.094 569.089V545.719C700.232 545.384 698.967 545.207 696.677 545.207C687.341 545.207 676.759 551.133 672.295 564.041H671.678V547.192" fill="#264653"/>
<path d="M418.857 547.192V636.337H443.166V584.015C443.166 581.558 443.438 579.05 444.306 576.782C446.282 571.483 451.186 565.347 459.059 565.347C468.845 565.347 473.466 573.604 473.466 585.52V636.337H497.713V583.388C497.713 581.078 498.037 578.245 498.716 576.197C500.661 570.187 505.973 565.347 513.313 565.347C523.204 565.347 527.993 573.427 527.993 587.474V636.337H552.218V583.774C552.218 556.16 538.166 545.207 522.21 545.207C515.195 545.207 509.612 546.931 504.593 550.025C500.348 552.627 496.626 556.296 493.29 561.094H492.924C489.087 551.499 480.074 545.207 468.301 545.207C453.203 545.207 446.345 552.826 442.309 559.264H441.943V547.192" fill="#264653"/>
<path d="M463.154 303.876C467.529 303.876 471.213 301.593 471.693 298.658L476.03 249.548C476.03 244.684 470.302 240.704 463.154 240.704C455.967 240.704 450.277 244.684 450.277 249.548L454.652 298.658C455.113 301.593 458.778 303.876 463.154 303.876Z" fill="#264653"/>
<path d="M436.543 319.243C438.711 315.406 438.586 311.147 436.246 309.248L395.754 280.942C391.542 278.487 385.237 281.413 381.63 287.609C378.032 293.796 378.761 300.74 382.887 303.148L427.715 323.923C430.584 324.998 434.336 323.003 436.543 319.204" fill="#264653"/>
<path d="M489.758 319.202C492.051 323.001 495.803 324.996 498.595 323.979L543.424 303.146C547.588 300.69 548.212 293.813 544.691 287.626C541.092 281.43 534.75 278.523 530.547 280.931L490.046 309.208C487.801 311.136 487.638 315.414 489.806 319.241" fill="#264653"/>
<path d="M463.154 365.22C467.529 365.22 471.213 367.503 471.693 370.438L476.03 419.548C476.03 424.411 470.302 428.353 463.154 428.353C455.967 428.353 450.277 424.411 450.277 419.548L454.652 370.438C455.113 367.503 458.778 365.22 463.154 365.22Z" fill="#264653"/>
<path d="M489.758 349.896C492.051 346.088 495.803 344.055 498.595 345.158L543.424 365.953C547.588 368.361 548.212 375.295 544.691 381.492C541.092 387.64 534.75 390.566 530.547 388.158L490.046 359.843C487.801 357.934 487.638 353.675 489.806 349.896" fill="#264653"/>
<path d="M436.543 349.854C438.711 353.681 438.586 357.93 436.246 359.849L395.754 388.116C391.542 390.571 385.237 387.636 381.63 381.488C378.032 375.301 378.761 368.357 382.887 365.949L427.715 345.154C430.584 344.061 434.336 346.075 436.543 349.854Z" fill="#264653"/>
<path d="M556.542 383.848H557.099C557.857 383.848 558.164 384.088 558.25 384.692C558.413 385.364 558.5 385.815 558.663 386.007H560.102C559.977 385.863 559.814 385.498 559.728 384.654C559.564 383.925 559.19 383.513 558.663 383.369V383.235C559.392 383.071 559.814 382.582 559.814 381.978C559.814 381.431 559.564 381.038 559.315 380.789C558.835 380.558 558.375 380.376 557.358 380.376C556.456 380.376 555.793 380.453 555.266 380.578V386.007H556.542V383.848ZM556.581 381.374L557.233 381.287C558.001 381.287 558.413 381.642 558.413 382.141C558.413 382.697 557.857 382.956 557.147 382.956H556.581V381.374ZM557.396 377.69C554.249 377.69 551.754 380.146 551.754 383.158C551.754 386.246 554.249 388.702 557.396 388.702C560.582 388.702 563 386.246 563 383.158C563 380.146 560.582 377.69 557.396 377.69ZM557.396 378.793C559.814 378.793 561.608 380.75 561.608 383.158C561.608 385.584 559.814 387.599 557.396 387.56C554.978 387.56 553.145 385.584 553.145 383.158C553.145 380.75 554.978 378.793 557.358 378.793" fill="#264653"/>
</svg>
