<svg width="300" height="300" viewBox="0 0 300 300" fill="none" xmlns="http://www.w3.org/2000/svg">
<rect width="300" height="300" fill="#FAF7F2"/>
<path d="M86.0215 126.84V123.258C86.0215 110.121 88.6659 98.8605 93.9548 89.477C99.2437 80.0935 106.409 72.8426 115.452 67.7243C124.494 62.606 134.389 60.0469 145.138 60.0469C158.275 60.0469 168.341 62.606 175.335 67.7243C182.501 72.672 187.79 78.2168 191.202 84.3587H194.785V63.6297H213.979V217.946C213.979 224.77 212.102 230.144 208.348 234.068C204.595 237.992 199.136 239.954 191.97 239.954H107.006V222.04H186.596C191.714 222.04 194.273 219.481 194.273 214.363V166.763H190.69C188.643 170.516 185.743 174.185 181.989 177.767C178.236 181.35 173.373 184.336 167.402 186.724C161.431 188.942 154.009 190.051 145.138 190.051C134.389 190.051 124.494 187.492 115.452 182.374C106.409 177.256 99.2437 170.005 93.9548 160.621C88.6659 151.067 86.0215 139.807 86.0215 126.84ZM150.512 172.137C163.478 172.137 173.971 168.043 181.989 159.853C190.179 151.664 194.273 140.404 194.273 126.073V124.025C194.273 109.524 190.179 98.2634 181.989 90.2447C173.971 82.0555 163.478 77.9609 150.512 77.9609C137.716 77.9609 127.138 82.0555 118.778 90.2447C110.589 98.2634 106.495 109.524 106.495 124.025V126.073C106.495 140.404 110.589 151.664 118.778 159.853C127.138 168.043 137.716 172.137 150.512 172.137Z" fill="#264653"/>
</svg>
